<?xml version="1.0" encoding="UTF-8"?>
<svg width="18px" height="16px" viewBox="0 0 18 16" version="1.1" xmlns="http://www.w3.org/2000/svg" xmlns:xlink="http://www.w3.org/1999/xlink">
    <!-- Generator: Sketch 49.3 (51167) - http://www.bohemiancoding.com/sketch -->
    <title>Page 1</title>
    <desc>Created with Sketch.</desc>
    <defs></defs>
    <g id="Portal-UIs-final" stroke="none" stroke-width="1" fill="none" fill-rule="evenodd">
        <g id="Artboard-Copy-40" transform="translate(-16.000000, -480.000000)">
            <g id="Page-1" transform="translate(16.000000, 480.000000)">
                <path d="M6.22093366,14.0790386 C6.23822079,14.124395 6.24668614,14.1447119 6.25390396,14.1655634 C6.59073564,15.1317713 7.41846832,15.7474248 8.41194356,15.7702366 C9.42395347,15.7935832 10.3075574,15.2058208 10.6749535,14.2456723 C10.7344782,14.0901772 10.8211812,14.0770782 10.9564485,14.0771673 C13.0125475,14.0799297 15.0687356,14.0791277 17.1248347,14.0788604 C17.2138545,14.0788604 17.3037653,14.0832267 17.391805,14.0731574 C17.7803198,14.028603 18.0414089,13.6387515 17.9396465,13.2605733 C17.847597,12.9187515 17.6124386,12.7638802 17.1719733,12.763702 C15.1158743,12.7627218 13.0597752,12.7608505 11.0035871,12.766999 C10.8038941,12.7676228 10.6958941,12.7283257 10.609904,12.5199891 C10.2403693,11.6232861 9.38688416,11.0784743 8.42165644,11.0869396 C7.48173564,11.0953158 6.63279505,11.6664149 6.27903267,12.5564347 C6.2093495,12.7319792 6.12264653,12.7668208 5.95503267,12.7663752 C4.25519109,12.7612069 2.5553495,12.7629891 0.85559703,12.7638802 C0.751874257,12.7638802 0.64690396,12.7641475 0.544785149,12.7794743 C0.334131683,12.8111079 0.172666337,12.9193752 0.0755376238,13.1139891 C-0.155967327,13.5770881 0.16990396,14.0770782 0.711686139,14.0778802 C2.44120099,14.0808208 4.17071584,14.0790386 5.90023069,14.0790386 L6.22093366,14.0790386 Z M3.02807228,1.69200891 L2.77437921,1.69200891 C2.06908218,1.69209802 1.36369604,1.68853366 0.658488119,1.69379109 C0.255270297,1.69673168 -0.0059970297,1.98045446 0.0101316832,2.38037525 C0.0254584158,2.76176139 0.293052475,3.00244455 0.727369307,3.00600891 C1.44006238,3.01171188 2.15284455,3.01064257 2.86553762,3.00538515 C3.00142871,3.00440495 3.0722703,3.03719703 3.12422079,3.17781089 C3.45285446,4.06800891 4.29208218,4.65434554 5.18664653,4.69070198 C6.30915149,4.73614752 7.17903267,4.03031584 7.48013168,3.24446436 C7.55872574,3.03933564 7.66093366,3.00413762 7.85251782,3.00440495 C10.9261515,3.00921683 13.9997851,3.0078802 17.0735079,3.00734554 C17.1773198,3.00734554 17.2817554,3.00770198 17.3847653,2.99638515 C17.7913693,2.95156337 18.0480921,2.56474158 17.9350129,2.17275149 C17.8417158,1.84964257 17.6037059,1.69227624 17.2011119,1.69227624 C14.0977158,1.69183069 10.9944089,1.68871188 7.89110198,1.69869208 C7.65460693,1.69949406 7.55186436,1.6299 7.45500297,1.41737525 C6.87249802,0.138484158 5.42153762,-0.363911881 4.18194356,0.280256436 C3.60897327,0.577969307 3.23943861,1.05897921 3.02807228,1.69200891 Z M15.4968149,8.28695941 C16.0674683,8.28695941 16.6314386,8.29301881 17.1949634,8.28277129 C17.3386069,8.28009802 17.4940129,8.25176139 17.6219733,8.18965248 C17.8891218,8.0599099 18.0131614,7.75569208 17.9453495,7.47651386 C17.8701416,7.16739505 17.6361416,6.9669 17.3039436,6.96039505 C16.7846168,6.95032574 16.2644881,6.94560297 15.7454287,6.96253366 C15.5496564,6.9688604 15.4659832,6.90648416 15.391399,6.72924653 C15.011795,5.82728614 14.1653495,5.27374158 13.2097455,5.28122673 C12.2636762,5.28871188 11.413399,5.85499901 11.0603495,6.74127624 C10.9879931,6.92323663 10.8973693,6.96030594 10.7212901,6.96003861 C7.43299307,6.95540495 4.14469604,6.95647426 0.85639901,6.95727624 C0.752765347,6.95727624 0.647082178,6.95469208 0.545854455,6.9728703 C0.219626733,7.03141485 0.0179732673,7.2679099 0.00968613861,7.5879 C0.00104257426,7.92232574 0.190220792,8.18109802 0.511547525,8.25612772 C0.618210891,8.28107822 0.731646535,8.28571188 0.842052475,8.28580099 C4.14523069,8.28722673 7.4483198,8.28856337 10.7514089,8.28241485 C10.9220525,8.28205842 10.9902208,8.3329396 11.0484089,8.49039505 C11.4210624,9.49741485 12.4946465,10.1230485 13.5548644,9.94839505 C14.5210723,9.78915743 15.1532109,9.22224653 15.4968149,8.28695941 Z" id="Fill-1" fill="#FFFFFF"></path>
                <path d="M13.2437851,6.59393465 C12.6715277,6.59233069 12.2189436,7.0384099 12.220102,7.60282574 C12.2212604,8.18862772 12.6675178,8.64629109 13.2385277,8.64727129 C13.795102,8.64825149 14.2747752,8.17820198 14.2719238,7.63481584 C14.268805,7.05845941 13.811498,6.59553861 13.2437851,6.59393465 M15.4968149,8.28700396 C15.1532109,9.22229109 14.5210723,9.78920198 13.5548644,9.9483505 C12.4946465,10.1230931 11.4210624,9.4973703 11.0484089,8.4904396 C10.9902208,8.33289505 10.9220525,8.28210297 10.7514089,8.2823703 C7.4483198,8.28860792 4.14523069,8.28727129 0.842052475,8.28575644 C0.731646535,8.28575644 0.618210891,8.28112277 0.511547525,8.25617228 C0.190220792,8.18105347 0.00104257426,7.92228119 0.00968613861,7.58794455 C0.0179732673,7.26795446 0.219626733,7.03145941 0.545854455,6.97282574 C0.647082178,6.95464752 0.752765347,6.95723168 0.85639901,6.95723168 C4.14469604,6.95651881 7.43299307,6.9554495 10.7212901,6.96008317 C10.8973693,6.9603505 10.9879931,6.92319208 11.0603495,6.74132079 C11.413399,5.85504356 12.2636762,5.28875644 13.2097455,5.28127129 C14.1653495,5.27369703 15.011795,5.82733069 15.391399,6.72929109 C15.4658941,6.9064396 15.5496564,6.96890495 15.7454287,6.96248911 C16.2644881,6.94564752 16.7846168,6.9503703 17.3039436,6.9604396 C17.6361416,6.96685545 17.8701416,7.1674396 17.9453495,7.47655842 C18.0131614,7.75573663 17.8891218,8.05986535 17.6219733,8.18960792 C17.4940129,8.25171683 17.3386069,8.28014257 17.1949634,8.28272673 C16.6314386,8.29297426 16.0674683,8.28700396 15.4968149,8.28700396" id="Fill-3" fill="#B2BDDE"></path>
                <path d="M4.28159406,2.34799307 C4.29175248,2.9443099 4.74816832,3.39101287 5.33343564,3.3772901 C5.8729901,3.36481485 6.34339604,2.88469604 6.33475248,2.35547822 C6.32512871,1.7662901 5.85775248,1.30345842 5.28451485,1.3153099 C4.71911881,1.32707228 4.27205941,1.78740891 4.28159406,2.34799307 Z M3.02809901,1.69206238 C3.23946535,1.05903267 3.60891089,0.578022772 4.18188119,0.280220792 C5.42156436,-0.363858416 6.87243564,0.138537624 7.4550297,1.4173396 C7.55189109,1.62995347 7.65463366,1.69945842 7.8910396,1.69865644 C10.9944356,1.68867624 14.0977426,1.69188416 17.2011386,1.69224059 C17.6036436,1.6923297 17.8416535,1.84960693 17.9349505,2.17280495 C18.0481188,2.56479505 17.791396,2.95161683 17.384703,2.9963495 C17.2817822,3.00766634 17.1772574,3.00739901 17.0734455,3.00739901 C13.9998119,3.00793366 10.9261782,3.0092703 7.85254455,3.00436931 C7.6609604,3.00410198 7.55875248,3.03938911 7.48015842,3.24442871 C7.17905941,4.0302802 6.30917822,4.73620099 5.18667327,4.69066634 C4.29210891,4.65439901 3.45288119,4.06806238 3.12415842,3.17786436 C3.07220792,3.03716139 3.00145545,3.00436931 2.86556436,3.0053495 C2.15287129,3.01060693 1.44008911,3.01176535 0.72739604,3.00597327 C0.293079208,3.00249802 0.0253960396,2.76172574 0.0100693069,2.3803396 C-0.00597029703,1.98041881 0.25529703,1.69669604 0.658425743,1.69375545 C1.36372277,1.68858713 2.0690198,1.69215149 2.77431683,1.69206238 L3.02809901,1.69206238 Z" id="Fill-5" fill="#B2BDDE"></path>
                <path d="M7.44805248,13.4106327 C7.44618119,13.9836921 7.90313168,14.4507119 8.46719109,14.4523158 C9.01503267,14.4539198 9.49800297,13.9797713 9.49960693,13.4386129 C9.50138911,12.8767812 9.02973564,12.3962168 8.47414158,12.3938109 C7.92576535,12.391405 7.44983465,12.8630584 7.44805248,13.4106327 M6.22093366,14.0790386 L5.90023069,14.0790386 C4.17071584,14.0790386 2.44120099,14.0808208 0.711686139,14.0778802 C0.16990396,14.0770782 -0.155967327,13.5770881 0.0755376238,13.1139891 C0.172666337,12.9193752 0.334131683,12.8110188 0.544785149,12.7794743 C0.64690396,12.7641475 0.751874257,12.7638802 0.85559703,12.7638802 C2.5553495,12.7629891 4.25519109,12.7612069 5.95503267,12.7663752 C6.12264653,12.7668208 6.2093495,12.7319792 6.27903267,12.5564347 C6.63279505,11.6664149 7.48173564,11.0953158 8.42165644,11.0869396 C9.38688416,11.0784743 10.2403693,11.6232861 10.609904,12.5199891 C10.6958941,12.7283257 10.8038941,12.7676228 11.0035871,12.766999 C13.0597752,12.7608505 15.1158743,12.7627218 17.1719733,12.763702 C17.6124386,12.7638802 17.847597,12.9187515 17.9396465,13.2605733 C18.0414089,13.6387515 17.7803198,14.028603 17.391805,14.0731574 C17.3037653,14.0832267 17.2138545,14.0788604 17.1248347,14.0788604 C15.0687356,14.0791277 13.0125475,14.0799297 10.9564485,14.0771673 C10.8211812,14.0770782 10.7344782,14.0901772 10.6749535,14.2456723 C10.3075574,15.2058208 9.42395347,15.7935832 8.41194356,15.7702366 C7.41846832,15.7474248 6.59073564,15.1317713 6.25390396,14.1655634 C6.24668614,14.1447119 6.23822079,14.124395 6.22093366,14.0790386" id="Fill-7" fill="#B2BDDE"></path>
                <path d="M14.2719238,7.63481584 C14.2747752,8.17820198 13.795102,8.64825149 13.2385277,8.64727129 C12.6675178,8.64629109 12.2212604,8.18862772 12.220102,7.60282574 C12.2189436,7.0384099 12.6715277,6.59233069 13.2437851,6.59393465 C13.811498,6.59553861 14.268805,7.05845941 14.2719238,7.63481584 Z" id="Fill-9" fill="#FFFFFF"></path>
                <path d="M4.28159406,2.34799307 C4.27205941,1.78740891 4.71911881,1.32707228 5.28451485,1.3153099 C5.85775248,1.30345842 6.32512871,1.7662901 6.33475248,2.35547822 C6.34339604,2.88469604 5.8729901,3.36481485 5.33343564,3.3772901 C4.74816832,3.39101287 4.29175248,2.9443099 4.28159406,2.34799307" id="Fill-11" fill="#FFFFFF"></path>
                <path d="M8.47414158,12.3938109 C9.02973564,12.3962168 9.50138911,12.8767812 9.49960693,13.4386129 C9.49800297,13.9797713 9.01503267,14.4539198 8.46719109,14.4523158 C7.90313168,14.4507119 7.44618119,13.9836921 7.44805248,13.4106327 C7.44983465,12.8630584 7.92576535,12.391405 8.47414158,12.3938109 Z" id="Fill-13" fill="#FFFFFF"></path>
            </g>
        </g>
    </g>
</svg>