<svg width="25px" height="25px" viewBox="0 0 25 25" version="1.1" xmlns="http://www.w3.org/2000/svg" xmlns:xlink="http://www.w3.org/1999/xlink">
    <!-- Generator: Sketch 50.2 (55047) - http://www.bohemiancoding.com/sketch -->
    <desc>Created with Sketch.</desc>
    <defs>
        <polygon id="path-1" points="0 0.28874375 24.6634267 0.28874375 24.6634267 24.3119938 0 24.3119938"></polygon>
    </defs>
    <g id="Portal-UIs-final" stroke="none" stroke-width="1" fill="none" fill-rule="evenodd">
        <g id="Artboard-Copy-12" transform="translate(-1361.000000, -19.000000)">
            <g id="Page-1" transform="translate(1361.000000, 19.000000)">
                <path d="M12.3321467,1.407725 C18.7368133,1.407725 23.92988,6.463475 23.92988,12.6987875 C23.92988,18.9357875 18.7368133,23.9915375 12.3321467,23.9915375 C5.92574667,23.9915375 0.73268,18.9357875 0.73268,12.6987875 C0.73268,6.463475 5.92574667,1.407725 12.3321467,1.407725" id="Fill-1" fill="#617FBA"></path>
                <path d="M12.3321467,1.407725 C5.92574667,1.407725 0.73268,6.463475 0.73268,12.6987875 C0.73268,18.9357875 5.92574667,23.9915375 12.3321467,23.9915375 L12.3321467,1.407725 Z" id="Fill-3" fill="#617FBA"></path>
                <g id="Group-7" transform="translate(0.000000, 0.399263)">
                    <mask id="mask-2" fill="white">
                        <use xlink:href="#path-1"></use>
                    </mask>
                    <g id="Clip-6"></g>
                    <path d="M15.38836,22.4557438 C15.77836,22.0186813 16.15796,21.5158063 16.5098267,20.9589313 C16.9604933,20.2484938 17.3504933,19.4773063 17.67636,18.6622438 L21.01476,18.6622438 C20.7096933,19.0537438 20.3768933,19.4283688 20.0146267,19.7810563 C18.70596,21.0551188 17.11996,21.9646813 15.38836,22.4557438 Z M3.65022667,18.6622438 L6.98689333,18.6622438 C7.31276,19.4773063 7.70276,20.2484938 8.15342667,20.9589313 C8.50529333,21.5158063 8.88489333,22.0186813 9.27489333,22.4557438 C7.54502667,21.9646813 5.95902667,21.0551188 4.64862667,19.7810563 C4.28636,19.4283688 3.95356,19.0537438 3.65022667,18.6622438 Z M9.27489333,2.14499375 C8.88489333,2.58205625 8.50529333,3.08493125 8.15342667,3.64180625 C7.70276,4.35224375 7.31276,5.12343125 6.98689333,5.93680625 L3.65022667,5.93680625 C3.95356,5.54699375 4.28636,5.17236875 4.64862667,4.81968125 C5.95902667,3.54393125 7.54502667,2.63605625 9.27489333,2.14499375 Z M21.01476,5.93680625 L17.67636,5.93680625 C17.3504933,5.12343125 16.9604933,4.35224375 16.5098267,3.64180625 C16.15796,3.08493125 15.77836,2.58205625 15.38836,2.14499375 C17.11996,2.63605625 18.70596,3.54393125 20.0146267,4.81968125 C20.3768933,5.17236875 20.7096933,5.54530625 21.01476,5.93680625 Z M18.8532933,13.0141813 L23.17276,13.0141813 C23.0722267,14.5059313 22.65276,15.9386188 21.9472933,17.2363063 L18.17036,17.2363063 C18.5638267,15.8981188 18.7960933,14.4721813 18.8532933,13.0141813 Z M13.0656933,17.2363063 L13.0656933,13.0141813 L17.38516,13.0141813 C17.32276,14.4839938 17.0696933,15.9133063 16.64156,17.2363063 L13.0656933,17.2363063 Z M13.0656933,22.5924313 L13.0656933,18.6622438 L16.0920933,18.6622438 C15.8476933,19.2056188 15.57036,19.7236813 15.26356,20.2096813 C14.4956933,21.4213063 13.6758267,22.2026188 13.0656933,22.5924313 Z M11.59756,18.6622438 L11.59756,22.5924313 C10.9874267,22.2026188 10.16756,21.4213063 9.39969333,20.2096813 C9.09289333,19.7236813 8.81556,19.2056188 8.57116,18.6622438 L11.59756,18.6622438 Z M7.27809333,13.0141813 L11.59756,13.0141813 L11.59756,17.2363063 L8.02169333,17.2363063 C7.59356,15.9133063 7.34049333,14.4839938 7.27809333,13.0141813 Z M5.81169333,11.5865563 L1.49049333,11.5865563 C1.59276,10.0948063 2.01049333,8.66211875 2.71596,7.36443125 L6.49289333,7.36443125 C6.10116,8.70261875 5.86716,10.1285563 5.81169333,11.5865563 Z M11.59756,7.36443125 L11.59756,11.5865563 L7.27809333,11.5865563 C7.34049333,10.1167438 7.59356,8.68743125 8.02169333,7.36443125 L11.59756,7.36443125 Z M11.59756,2.00830625 L11.59756,5.93680625 L8.57116,5.93680625 C8.81556,5.39511875 9.09289333,4.87705625 9.39969333,4.39105625 C10.16756,3.17943125 10.9874267,2.39811875 11.59756,2.00830625 Z M13.0656933,5.93680625 L13.0656933,2.00830625 C13.6758267,2.39811875 14.4956933,3.17943125 15.26356,4.39105625 C15.57036,4.87705625 15.8476933,5.39511875 16.0920933,5.93680625 L13.0656933,5.93680625 Z M17.38516,11.5865563 L13.0656933,11.5865563 L13.0656933,7.36443125 L16.64156,7.36443125 C17.0696933,8.68743125 17.32276,10.1167438 17.38516,11.5865563 Z M23.17276,11.5865563 L18.8532933,11.5865563 C18.7960933,10.1285563 18.5638267,8.70261875 18.17036,7.36443125 L21.9472933,7.36443125 C22.65276,8.66211875 23.0722267,10.0948063 23.17276,11.5865563 Z M1.49049333,13.0141813 L5.81169333,13.0141813 C5.86716,14.4721813 6.10116,15.8981188 6.49289333,17.2363063 L2.71596,17.2363063 C2.01049333,15.9386188 1.59276,14.5059313 1.49049333,13.0141813 Z M24.6634267,12.3003688 C24.6634267,9.09411875 23.38076,6.07855625 21.05116,3.81055625 C18.7614267,1.58136875 15.7298267,0.33936875 12.4988933,0.29718125 C12.4416933,0.29211875 12.3862267,0.28874375 12.3324933,0.28874375 C12.2770267,0.28874375 12.22156,0.29211875 12.16436,0.29718125 C8.93342667,0.33936875 5.90182667,1.58136875 3.61209333,3.81055625 C1.28249333,6.07855625 -0.000173333333,9.09411875 -0.000173333333,12.3003688 C-0.000173333333,15.5066188 1.28249333,18.5221813 3.61209333,20.7901813 C5.90182667,23.0176813 8.93342667,24.2630563 12.16436,24.3035563 C12.22156,24.3086188 12.2770267,24.3119938 12.3324933,24.3119938 C12.3862267,24.3119938 12.4416933,24.3086188 12.4988933,24.3035563 C15.7298267,24.2630563 18.7614267,23.0176813 21.05116,20.7901813 C23.38076,18.5221813 24.6634267,15.5066188 24.6634267,12.3003688 Z" id="Fill-5" fill="#8BAAD6" mask="url(#mask-2)"></path>
                </g>
            </g>
        </g>
    </g>
</svg>